<mxfile host="app.diagrams.net" modified="2023-04-04T04:22:53.104Z" agent="Mozilla/5.0 (Windows NT 10.0; Win64; x64) AppleWebKit/537.36 (KHTML, like Gecko) Chrome/111.0.0.0 Safari/537.36" etag="JWjtiLaiubiIcfHSmGmb" version="21.1.1" type="github">
  <diagram name="페이지-1" id="J1Gyva_0x2IWe9NpJs1t">
    <mxGraphModel dx="1451" dy="577" grid="1" gridSize="10" guides="1" tooltips="1" connect="1" arrows="1" fold="1" page="1" pageScale="1" pageWidth="827" pageHeight="1169" math="0" shadow="0">
      <root>
        <mxCell id="0" />
        <mxCell id="1" parent="0" />
        <mxCell id="SL4sinLKfhVQvQPkShJp-1" value="Actor" style="shape=umlActor;verticalLabelPosition=bottom;verticalAlign=top;html=1;outlineConnect=0;" vertex="1" parent="1">
          <mxGeometry x="50" y="240" width="30" height="60" as="geometry" />
        </mxCell>
        <mxCell id="SL4sinLKfhVQvQPkShJp-2" value="Manager" style="shape=umlActor;verticalLabelPosition=bottom;verticalAlign=top;html=1;outlineConnect=0;" vertex="1" parent="1">
          <mxGeometry x="-650" y="140" width="30" height="60" as="geometry" />
        </mxCell>
        <mxCell id="SL4sinLKfhVQvQPkShJp-3" value="MPM01. Register Manufaturing plant" style="ellipse;whiteSpace=wrap;html=1;" vertex="1" parent="1">
          <mxGeometry x="-550" y="60" width="163" height="50" as="geometry" />
        </mxCell>
        <mxCell id="SL4sinLKfhVQvQPkShJp-4" value="MPM02. View registered Manufaturing plant" style="ellipse;whiteSpace=wrap;html=1;" vertex="1" parent="1">
          <mxGeometry x="-550" y="120" width="163" height="50" as="geometry" />
        </mxCell>
        <mxCell id="SL4sinLKfhVQvQPkShJp-5" value="MPM03. Update registered Manufaturing plant info" style="ellipse;whiteSpace=wrap;html=1;" vertex="1" parent="1">
          <mxGeometry x="-550" y="180" width="163" height="50" as="geometry" />
        </mxCell>
        <mxCell id="SL4sinLKfhVQvQPkShJp-6" value="MPM04. Uregiste Manufaturing plant" style="ellipse;whiteSpace=wrap;html=1;" vertex="1" parent="1">
          <mxGeometry x="-550" y="245" width="163" height="50" as="geometry" />
        </mxCell>
        <mxCell id="SL4sinLKfhVQvQPkShJp-8" value="" style="endArrow=none;html=1;rounded=0;exitX=1;exitY=0.3333333333333333;exitDx=0;exitDy=0;exitPerimeter=0;entryX=0;entryY=0.5;entryDx=0;entryDy=0;" edge="1" parent="1" source="SL4sinLKfhVQvQPkShJp-2" target="SL4sinLKfhVQvQPkShJp-3">
          <mxGeometry width="50" height="50" relative="1" as="geometry">
            <mxPoint x="-390" y="320" as="sourcePoint" />
            <mxPoint x="-340" y="270" as="targetPoint" />
          </mxGeometry>
        </mxCell>
        <mxCell id="SL4sinLKfhVQvQPkShJp-9" value="" style="endArrow=none;html=1;rounded=0;entryX=0;entryY=0.5;entryDx=0;entryDy=0;" edge="1" parent="1" target="SL4sinLKfhVQvQPkShJp-4">
          <mxGeometry width="50" height="50" relative="1" as="geometry">
            <mxPoint x="-620" y="160" as="sourcePoint" />
            <mxPoint x="-540" y="95" as="targetPoint" />
          </mxGeometry>
        </mxCell>
        <mxCell id="SL4sinLKfhVQvQPkShJp-10" value="" style="endArrow=none;html=1;rounded=0;entryX=0;entryY=0.5;entryDx=0;entryDy=0;" edge="1" parent="1" target="SL4sinLKfhVQvQPkShJp-5">
          <mxGeometry width="50" height="50" relative="1" as="geometry">
            <mxPoint x="-620" y="160" as="sourcePoint" />
            <mxPoint x="-540" y="155" as="targetPoint" />
          </mxGeometry>
        </mxCell>
        <mxCell id="SL4sinLKfhVQvQPkShJp-11" value="" style="endArrow=none;html=1;rounded=0;entryX=0;entryY=0.5;entryDx=0;entryDy=0;" edge="1" parent="1" target="SL4sinLKfhVQvQPkShJp-6">
          <mxGeometry width="50" height="50" relative="1" as="geometry">
            <mxPoint x="-620" y="160" as="sourcePoint" />
            <mxPoint x="-540" y="215" as="targetPoint" />
          </mxGeometry>
        </mxCell>
      </root>
    </mxGraphModel>
  </diagram>
</mxfile>
